# xmcd
#
# Track frame offsets:
#	150
#	18908
#	31010
#	52691
#	64565
#	84470
#	104284
#	118275
#	136593
#	150679
#
# Disc length: 2229 seconds
#
# Revision: 0
# Processed by: cddbd v1.5.1PL0 Copyright (c) Steve Scherf et al.
# Submitted via: AudioConverter v5.0 Copyright (c) AC Productions Ltd
#
DISCID=6c08b30a
DTITLE=Charles Peavy - Watchin' Time Go By
DYEAR=2000
DGENRE=Country
TTITLE0=Watchin' Time Go By
TTITLE1=Bar Room In a Bottle
TTITLE2=Blues Man
TTITLE3=Straight for my Heart
TTITLE4=Hello
TTITLE5=Coldest Time of Year
TTITLE6=Holding on to Love
TTITLE7=Silver Wings
TTITLE8=Walking Jukebox
TTITLE9=Help Me Make It
EXTD=
EXTT0=
EXTT1=
EXTT2=
EXTT3=
EXTT4=
EXTT5=
EXTT6=
EXTT7=
EXTT8=
EXTT9=
PLAYORDER=
